<svg width="15" height="15" viewBox="0 0 15 15" fill="none" xmlns="http://www.w3.org/2000/svg">
<circle cx="7.71961" cy="7.68302" r="6.76654" fill="#CE0101"/>
<path d="M7.71962 3.62311C5.48016 3.62311 3.65969 5.44358 3.65969 7.68303C3.65969 9.92249 5.48016 11.743 7.71962 11.743C9.95907 11.743 11.7795 9.92249 11.7795 7.68303C11.7795 5.44358 9.95907 3.62311 7.71962 3.62311ZM11.4515 7.52064H9.82915C9.82753 7.43457 9.82103 7.35012 9.81778 7.26567C9.81616 7.22183 9.81454 7.17635 9.81129 7.13251C9.79992 6.97498 9.78531 6.81908 9.76419 6.66643C9.75932 6.63395 9.75445 6.60472 9.74958 6.57224C9.73171 6.45044 9.71223 6.33027 9.68787 6.21172C9.67812 6.16137 9.66676 6.11265 9.65539 6.06393C9.6424 6.00872 9.63265 5.95026 9.61804 5.89667H10.9984C11.2647 6.38223 11.4255 6.93438 11.4499 7.52064H11.4515ZM9.09837 10.0345C9.08213 10.0735 9.06751 10.1125 9.05127 10.1515C9.04153 10.1726 9.03341 10.1937 9.02366 10.2148C9.00905 10.2489 8.99281 10.283 8.97657 10.3171C8.96683 10.3382 8.95708 10.3593 8.94571 10.3788C8.92947 10.4113 8.91161 10.4438 8.89537 10.4746C8.88563 10.4925 8.87588 10.512 8.86451 10.5299C8.84503 10.564 8.82554 10.5981 8.80443 10.6305C8.79631 10.6435 8.78819 10.6565 8.78007 10.6695C8.75084 10.7134 8.72323 10.7572 8.69237 10.7978C8.68588 10.8059 8.67938 10.814 8.67289 10.8238C8.65015 10.8546 8.62579 10.8855 8.60143 10.9147C8.59006 10.9277 8.5787 10.9407 8.56733 10.9537C8.54784 10.9764 8.52673 10.9992 8.50724 11.0203C8.49425 11.0333 8.48288 11.0463 8.46989 11.0593C8.4504 11.0788 8.42929 11.0982 8.4098 11.1161C8.39681 11.1275 8.38382 11.1388 8.37083 11.1502C8.34972 11.1681 8.3286 11.1843 8.30587 11.2006C8.2945 11.2087 8.28151 11.2184 8.27014 11.2265C8.24253 11.246 8.21655 11.2623 8.18894 11.2785C8.18245 11.2818 8.17595 11.2866 8.16946 11.2915C8.13535 11.311 8.10125 11.3272 8.06715 11.3418C8.0574 11.3467 8.04603 11.35 8.03629 11.3532C8.01193 11.3629 7.98757 11.3727 7.96159 11.3792C7.9486 11.3824 7.9356 11.3857 7.92261 11.3889C7.90962 11.3922 7.895 11.3954 7.88201 11.3971V9.79095H9.18606C9.16495 9.85266 9.14384 9.91437 9.1211 9.97283C9.11298 9.99232 9.10649 10.0118 9.09837 10.0313V10.0345ZM7.47602 11.3808C7.45166 11.3727 7.42568 11.3646 7.40132 11.3548C7.39157 11.35 7.38021 11.3467 7.37046 11.3435C7.33636 11.3288 7.30063 11.311 7.26815 11.2931C7.26166 11.2899 7.25516 11.285 7.24866 11.2801C7.22106 11.2639 7.19345 11.246 7.16747 11.2282C7.1561 11.22 7.14311 11.2103 7.13174 11.2022C7.11063 11.1859 7.08789 11.1697 7.06678 11.1518C7.05379 11.1405 7.0408 11.1291 7.0278 11.1177C7.00832 11.0999 6.98721 11.0804 6.96772 11.0609C6.95473 11.0479 6.94173 11.0365 6.93037 11.0219C6.90925 11.0008 6.88977 10.9781 6.87028 10.9553C6.85891 10.9423 6.84754 10.9293 6.83618 10.9164C6.81182 10.8871 6.78908 10.8563 6.76472 10.8254C6.75823 10.8173 6.75173 10.8092 6.74523 10.7994C6.716 10.7588 6.68677 10.715 6.65754 10.6711C6.64942 10.6581 6.6413 10.6452 6.63318 10.6322C6.61369 10.5997 6.59258 10.5656 6.57309 10.5315C6.56335 10.5136 6.55361 10.4941 6.54224 10.4763C6.526 10.4454 6.50813 10.4129 6.49189 10.3804C6.48215 10.3593 6.47078 10.3398 6.46104 10.3187C6.4448 10.2863 6.43018 10.2522 6.41394 10.2164C6.4042 10.1953 6.39446 10.1742 6.38634 10.1531C6.3701 10.1157 6.35386 10.0768 6.33924 10.0362C6.33112 10.0167 6.323 9.99719 6.31651 9.9777C6.29377 9.91762 6.27266 9.85753 6.25155 9.79582H7.55559V11.4019C7.5426 11.3987 7.52799 11.3971 7.515 11.3938C7.502 11.3906 7.48901 11.3873 7.47602 11.3841V11.3808ZM6.34087 5.33152C6.35711 5.29255 6.37172 5.25357 6.38796 5.2146C6.3977 5.19349 6.40582 5.17238 6.41557 5.15126C6.43018 5.11716 6.44642 5.08306 6.46266 5.04895C6.47241 5.02784 6.48215 5.00673 6.49352 4.98724C6.50976 4.95476 6.52762 4.92228 6.54386 4.89143C6.55361 4.87356 6.56335 4.85408 6.57472 4.83621C6.5942 4.80211 6.61369 4.76801 6.6348 4.73553C6.64292 4.72254 6.65104 4.70954 6.65916 4.69655C6.68839 4.6527 6.716 4.60886 6.74686 4.56826C6.75335 4.56014 6.75985 4.55202 6.76635 4.54227C6.78908 4.51142 6.81344 4.48056 6.8378 4.45133C6.84917 4.43834 6.86054 4.42535 6.8719 4.41236C6.89139 4.38962 6.9125 4.36689 6.93199 4.34577C6.94498 4.33278 6.95635 4.31979 6.96934 4.3068C6.98883 4.28731 7.00994 4.26782 7.02943 4.24996C7.04242 4.23859 7.05541 4.22722 7.0684 4.21586C7.08952 4.19799 7.11063 4.18175 7.13336 4.16551C7.14473 4.15739 7.15772 4.14765 7.16909 4.13953C7.1967 4.12004 7.22268 4.1038 7.25029 4.08756C7.25678 4.08432 7.26328 4.07944 7.26978 4.07457C7.30388 4.05508 7.33798 4.03884 7.37209 4.02423C7.38183 4.01936 7.3932 4.01611 7.40294 4.01286C7.4273 4.00312 7.45166 3.99337 7.47764 3.98688C7.49064 3.98363 7.50363 3.98038 7.51662 3.97713C7.52961 3.97389 7.54423 3.97064 7.55722 3.96901V5.57187H6.25317C6.27428 5.51016 6.29539 5.44845 6.31813 5.38999C6.32625 5.3705 6.33275 5.35101 6.34087 5.33152ZM7.96321 3.98525C7.98757 3.99337 8.01355 4.00149 8.03791 4.01124C8.04766 4.01611 8.05903 4.01936 8.06877 4.0226C8.10287 4.03722 8.1386 4.05508 8.17108 4.07295C8.17758 4.0762 8.18407 4.08107 8.19057 4.08594C8.21817 4.10218 8.24578 4.12004 8.27177 4.13791C8.28313 4.14603 8.29613 4.15577 8.30749 4.16389C8.3286 4.18013 8.35134 4.19637 8.37245 4.21423C8.38544 4.2256 8.39844 4.23697 8.41143 4.24834C8.43091 4.2662 8.45203 4.28569 8.47151 4.30518C8.48451 4.31817 8.4975 4.32953 8.50887 4.34415C8.52998 4.36526 8.54946 4.388 8.56895 4.41073C8.58032 4.42373 8.59169 4.43672 8.60306 4.44971C8.62742 4.47894 8.65015 4.5098 8.67451 4.54065C8.68101 4.54877 8.6875 4.55689 8.694 4.56663C8.72323 4.60723 8.75246 4.65108 8.78169 4.69493C8.78981 4.70792 8.79793 4.72091 8.80605 4.7339C8.82554 4.76638 8.84665 4.80049 8.86614 4.83459C8.87588 4.85245 8.88563 4.87194 8.89699 4.8898C8.91323 4.92066 8.9311 4.95314 8.94734 4.98562C8.95708 5.00673 8.96845 5.02622 8.97819 5.04733C8.99443 5.07981 9.00905 5.11391 9.02529 5.14964C9.03503 5.17075 9.04478 5.19186 9.0529 5.21297C9.06913 5.25033 9.08537 5.2893 9.09999 5.3299C9.10811 5.34939 9.11623 5.36888 9.12273 5.38836C9.14546 5.44845 9.16657 5.50854 9.18769 5.57025H7.88364V3.96577C7.89663 3.96901 7.91124 3.97064 7.92424 3.97389C7.93723 3.97713 7.95022 3.98038 7.96321 3.98363V3.98525ZM9.4865 8.22057C9.47675 8.35373 9.46376 8.48527 9.44752 8.61519C9.44427 8.63468 9.44427 8.65579 9.44102 8.67528C9.42154 8.82468 9.39555 8.97084 9.36632 9.11375C9.3582 9.15597 9.34683 9.1982 9.33709 9.24042C9.31923 9.31837 9.30136 9.3947 9.28025 9.4694H7.88201V7.84543H9.50111C9.50111 7.91851 9.49786 7.99159 9.49462 8.06304C9.49137 8.11501 9.49137 8.16698 9.4865 8.21894V8.22057ZM6.1606 9.4694C6.14112 9.3947 6.12163 9.31837 6.10377 9.24042C6.09402 9.1982 6.08265 9.1576 6.07453 9.11375C6.0453 8.97084 6.02094 8.82468 5.99983 8.67528C5.99658 8.65579 5.99658 8.63468 5.99334 8.61519C5.9771 8.48527 5.9641 8.35373 5.95436 8.22057C5.95111 8.1686 5.94949 8.11663 5.94624 8.06467C5.94299 7.99159 5.94137 7.92013 5.93974 7.84705H7.55884V9.47102H6.15898L6.1606 9.4694ZM5.95436 7.1455C5.9641 7.01071 5.9771 6.87754 5.99334 6.74763C5.99496 6.72976 5.99658 6.71027 5.99983 6.69079C6.01932 6.54138 6.0453 6.3936 6.07453 6.25069C6.08265 6.21009 6.09402 6.17112 6.10214 6.13052C6.12001 6.05094 6.13949 5.97299 6.1606 5.89667H7.55884V7.52064H5.93812C5.93812 7.44756 5.94137 7.37448 5.94462 7.3014C5.94786 7.24943 5.94786 7.19747 5.95274 7.1455H5.95436ZM9.28025 5.89667C9.30136 5.97299 9.32085 6.05094 9.33871 6.13052C9.34846 6.17112 9.3582 6.21009 9.36632 6.25069C9.39555 6.3936 9.42154 6.54138 9.44102 6.69079C9.44427 6.70865 9.44427 6.72814 9.44752 6.74763C9.46376 6.87917 9.47838 7.01233 9.4865 7.1455C9.48974 7.19747 9.49137 7.24943 9.49462 7.3014C9.49786 7.37448 9.49949 7.44756 9.50111 7.52064H7.88201V5.89667H9.28025ZM10.8003 5.57187H9.52872C9.52385 5.55401 9.51735 5.53777 9.51085 5.5199C9.49624 5.47606 9.48162 5.43221 9.46701 5.38999C9.45564 5.35588 9.44265 5.32178 9.43128 5.2893C9.41666 5.2487 9.40042 5.2081 9.38418 5.1675C9.37119 5.13502 9.3582 5.10254 9.34359 5.07007C9.32735 5.03109 9.30948 4.99374 9.29324 4.95801C9.27863 4.92716 9.26401 4.8963 9.2494 4.86707C9.23153 4.83134 9.21367 4.79724 9.1958 4.76313C9.17956 4.7339 9.16495 4.70467 9.14871 4.67706C9.13085 4.64459 9.11136 4.61373 9.09187 4.58125C9.07563 4.55364 9.05939 4.52766 9.04153 4.50168C9.02204 4.47244 9.00255 4.44321 8.98306 4.41561C8.9652 4.39125 8.94896 4.36526 8.9311 4.34253C8.90999 4.31492 8.8905 4.28894 8.86939 4.26458C8.85152 4.24184 8.83366 4.2191 8.81417 4.19799C8.79306 4.17363 8.77195 4.1509 8.74921 4.12816C8.73622 4.11355 8.72323 4.09893 8.70861 4.08432C9.56932 4.32142 10.3066 4.85733 10.8003 5.57512V5.57187ZM6.73062 4.08107C6.71763 4.09406 6.70463 4.1103 6.69002 4.12491C6.66891 4.14765 6.64617 4.17039 6.62506 4.19475C6.6072 4.21586 6.58771 4.23859 6.56984 4.26133C6.54873 4.28731 6.52762 4.3133 6.50813 4.33928C6.49027 4.36364 6.47241 4.388 6.45617 4.41236C6.43668 4.43996 6.41719 4.4692 6.3977 4.49843C6.38146 4.52441 6.3636 4.55202 6.34736 4.578C6.32787 4.60886 6.31001 4.64134 6.29052 4.67382C6.27428 4.70142 6.25967 4.73066 6.24343 4.75989C6.22556 4.79399 6.2077 4.82809 6.18984 4.86382C6.17522 4.89305 6.1606 4.92391 6.14599 4.95476C6.12813 4.99211 6.11189 5.02947 6.09565 5.06682C6.08265 5.0993 6.06804 5.13015 6.05505 5.16426C6.03881 5.20485 6.02257 5.24383 6.00795 5.28605C5.99496 5.31853 5.98359 5.35264 5.97222 5.38674C5.95761 5.42896 5.94299 5.47281 5.92838 5.51666C5.92188 5.53452 5.91701 5.55076 5.91051 5.56862H4.64057C5.13426 4.85083 5.87154 4.3133 6.73224 4.07782L6.73062 4.08107ZM4.4392 5.89667H5.81957C5.80658 5.95188 5.79521 6.00872 5.78222 6.06393C5.77085 6.11265 5.75948 6.16137 5.74974 6.21172C5.727 6.33027 5.70589 6.45044 5.68803 6.57224C5.68316 6.60309 5.67666 6.63395 5.67341 6.66643C5.65393 6.81908 5.63769 6.97498 5.62632 7.13251C5.62307 7.17635 5.62307 7.2202 5.61982 7.26567C5.61495 7.35012 5.61008 7.43457 5.60845 7.52064H3.98773C4.01372 6.93438 4.17449 6.38223 4.4392 5.89667ZM3.98773 7.84543H5.61008C5.6117 7.9315 5.6182 8.01595 5.62145 8.10039C5.62307 8.14424 5.62469 8.18971 5.62794 8.23356C5.63931 8.39108 5.65393 8.54698 5.67504 8.69964C5.67991 8.73212 5.68478 8.76135 5.68965 8.79383C5.70752 8.91563 5.727 9.0358 5.75136 9.15435C5.76111 9.20469 5.77248 9.25341 5.78384 9.30213C5.79684 9.35735 5.80658 9.41581 5.82119 9.4694H4.4392C4.17287 8.98383 4.01209 8.43168 3.98773 7.84543ZM4.63894 9.79419H5.91051C5.91539 9.81206 5.92188 9.82992 5.92838 9.84778C5.94299 9.89163 5.95761 9.93386 5.97222 9.97608C5.98522 10.0118 5.99658 10.0459 6.00958 10.08C6.02419 10.1206 6.04043 10.1596 6.05505 10.1969C6.06804 10.231 6.08265 10.2651 6.09727 10.2976C6.11351 10.335 6.12975 10.3707 6.14599 10.4064C6.1606 10.4389 6.17522 10.4714 6.19146 10.5022C6.2077 10.5363 6.22556 10.5688 6.24343 10.6029C6.25967 10.6338 6.27591 10.663 6.29215 10.6922C6.31001 10.7247 6.32787 10.754 6.34736 10.7848C6.3636 10.8124 6.38146 10.84 6.39933 10.8676C6.41882 10.8969 6.4383 10.9245 6.45779 10.9537C6.47565 10.9797 6.49352 11.0041 6.51138 11.0284C6.53087 11.056 6.55198 11.0804 6.57309 11.1064C6.59096 11.1291 6.61044 11.1518 6.62831 11.1729C6.64942 11.1973 6.67053 11.22 6.69327 11.2428C6.70626 11.2574 6.71925 11.272 6.73387 11.2866C5.87316 11.0495 5.13588 10.5136 4.64219 9.79582L4.63894 9.79419ZM8.70699 11.285C8.71998 11.272 8.73297 11.2558 8.74759 11.2412C8.7687 11.2184 8.79144 11.1957 8.81255 11.1713C8.83204 11.1502 8.8499 11.1275 8.86776 11.1047C8.88887 11.0788 8.90836 11.0544 8.92947 11.0268C8.94734 11.0024 8.9652 10.9764 8.98306 10.9521C9.00255 10.9245 9.02204 10.8969 9.04153 10.866C9.05939 10.84 9.07563 10.8124 9.09349 10.7832C9.11136 10.7523 9.13085 10.7215 9.14871 10.6906C9.16495 10.6614 9.18119 10.6322 9.19743 10.6013C9.21529 10.5688 9.23153 10.5347 9.2494 10.5006C9.26564 10.4698 9.28025 10.4373 9.29487 10.4048C9.31111 10.3691 9.32735 10.3334 9.34359 10.296C9.3582 10.2635 9.37119 10.2294 9.38581 10.1953C9.40205 10.1563 9.41666 10.1174 9.43128 10.0784C9.44427 10.0443 9.45726 10.0086 9.46863 9.97445C9.48325 9.93223 9.49786 9.89001 9.51248 9.84616C9.51897 9.8283 9.52385 9.81206 9.53034 9.79257H10.8019C10.3082 10.5104 9.57094 11.0479 8.71024 11.2834L8.70699 11.285ZM10.9984 9.4694H9.61804C9.63103 9.41419 9.6424 9.35735 9.65539 9.30213C9.66676 9.25341 9.67812 9.20469 9.68787 9.15435C9.7106 9.0358 9.73171 8.91563 9.74958 8.79383C9.75445 8.76297 9.76095 8.73212 9.76419 8.69964C9.78368 8.54698 9.79992 8.39108 9.81129 8.23356C9.81454 8.18971 9.81454 8.14586 9.81778 8.10039C9.82266 8.01595 9.82753 7.9315 9.82915 7.84543H11.4515C11.4255 8.43168 11.2647 8.98383 11 9.4694H10.9984Z" fill="white"/>
</svg>
